<svg xmlns="http://www.w3.org/2000/svg" width="89" height="91.128" viewBox="0 0 89 91.128">
  <path id="Icon_material-business-center" data-name="Icon material-business-center" d="M39.4,71.148v-4.9H9.343L9.3,85.836c0,5.435,3.827,9.792,8.6,9.792H78.1c4.773,0,8.6-4.357,8.6-9.792V66.252H56.6v4.9Zm43-44.064H65.157V17.292L56.557,7.5h-17.2l-8.6,9.792v9.792H13.6c-4.73,0-8.6,4.406-8.6,9.792V51.564C5,57,8.827,61.356,13.6,61.356H39.4V51.564H56.6v9.792H82.4c4.73,0,8.6-4.406,8.6-9.792V36.876C91,31.49,87.13,27.084,82.4,27.084Zm-25.8,0H39.4V17.292H56.6Z" transform="translate(-3.5 -6)" fill="none" stroke="#9297ab" stroke-width="3"/>
</svg>
