<svg xmlns="http://www.w3.org/2000/svg" width="50.4" height="57.6" viewBox="0 0 50.4 57.6">
  <path id="Icon_map-local-government" data-name="Icon map-local-government" d="M55.2,34.8v24h-18V54H21.6v4.8H4.8v-24ZM44.339,30.426a13.766,13.766,0,0,0-4.692-7.681c-2.372-1.972-5.179-2.345-8.435-3.545H31.2V11.606l.629-.169,1.376-.51a13.226,13.226,0,0,1,1.507-.434,4.936,4.936,0,0,1,1.062-.166,8.22,8.22,0,0,1,1.694.218c.682.166,1.408.344,2.146.547.769.233,1.456.409,2.122.559a7.278,7.278,0,0,0,1.607.205,11.609,11.609,0,0,0,2.257-.31V2.857a8.22,8.22,0,0,1-2.258.443,6.728,6.728,0,0,1-1.621-.228c-.664-.127-1.348-.325-2.117-.548q-1.029-.309-2.08-.535a6.391,6.391,0,0,0-1.536-.229A11.23,11.23,0,0,0,31.2,2.786V1.2H28.8v18h-.076c-3.23,1.2-6.059,1.642-8.429,3.613a13.9,13.9,0,0,0-4.7,7.513,1.952,1.952,0,0,0-2.3,2.074H46.859c0-2.4-2.52-1.974-2.52-1.974Z" transform="translate(-4.8 -1.2)" fill="#9297ab"/>
</svg>
