<svg xmlns="http://www.w3.org/2000/svg" width="61.005" height="61.005" viewBox="0 0 61.005 61.005">
  <path id="Icon_awesome-pencil-alt" data-name="Icon awesome-pencil-alt" d="M58.348,16.652l-5.4,5.4a1.408,1.408,0,0,1-1.992,0L37.945,9.047a1.408,1.408,0,0,1,0-1.992l5.4-5.4a5.637,5.637,0,0,1,7.957,0L58.348,8.7A5.616,5.616,0,0,1,58.348,16.652ZM33.3,11.7,2.531,42.469.047,56.707A2.816,2.816,0,0,0,3.3,59.965l14.238-2.5L48.316,26.7a1.408,1.408,0,0,0,0-1.992L35.309,11.7A1.422,1.422,0,0,0,33.3,11.7ZM14.543,39.832a1.634,1.634,0,0,1,0-2.32L32.59,19.465a1.641,1.641,0,0,1,2.32,2.32L16.863,39.832A1.634,1.634,0,0,1,14.543,39.832Zm-4.23,9.855h5.625v4.254L8.379,55.266,4.734,51.621l1.324-7.559h4.254Z" transform="translate(0.505 0.491)" fill="#9297ab" stroke="#000" stroke-width="1"/>
</svg>
