<svg xmlns="http://www.w3.org/2000/svg" width="95.685" height="84.342" viewBox="0 0 95.685 84.342">
  <path id="Icon_material-add-a-photo" data-name="Icon material-add-a-photo" d="M12.089,14.12V2.5h8.06V14.12H32.238v7.747H20.149v11.62h-8.06V21.867H0V14.12ZM24.179,37.361V25.741H36.268V14.12H64.476l7.374,7.747H84.625a7.931,7.931,0,0,1,8.06,7.747V76.095a7.931,7.931,0,0,1-8.06,7.747H20.149a7.931,7.931,0,0,1-8.06-7.747V37.361ZM52.387,72.222c11.122,0,20.149-8.676,20.149-19.367S63.509,33.487,52.387,33.487,32.238,42.164,32.238,52.854,41.265,72.222,52.387,72.222Zm-12.9-19.367a12.905,12.905,0,1,0,12.9-12.395A12.639,12.639,0,0,0,39.492,52.854Z" transform="translate(1.5 -1)" fill="none" stroke="#9297ab" stroke-width="3"/>
</svg>
